PathFileType	4	(X/Y/Z)	C:/Users/opensim2020/Desktop/walking_exp_matlab/subject06_walking13_straight_04.trc																																																																																																																																																				
DataRate	CameraRate	NumFrames	NumMarkers	Units	OrigDataRate	OrigDataStartFrame	OrigNumFrames																																																																																																																																																
100	100	4	50	mm	100	2885	204																																																																																																																																																
Frame#	Time	LFHD			RFHD			LBHD			RBHD			C7			T10			CLAV			STRN			RBAK			LSHO			LUPA			LELB			LFRM			LWRA			LWRB			LFIN			RSHO			RUPA			RELB			RFRM			RWRA			RWRB			RFIN			LASI			RASI			LPSI			RPSI			LTHI			LKNE			LTIB			LANK			LHEE			LTOE			RTHI			RKNE			RTIB			RANK			RHEE			RTOE			*39			*40			*41			*42			*43			*44			*45			*46			*47			*48			*49		
		X1	Y1	Z1	X2	Y2	Z2	X3	Y3	Z3	X4	Y4	Z4	X5	Y5	Z5	X6	Y6	Z6	X7	Y7	Z7	X8	Y8	Z8	X9	Y9	Z9	X10	Y10	Z10	X11	Y11	Z11	X12	Y12	Z12	X13	Y13	Z13	X14	Y14	Z14	X15	Y15	Z15	X16	Y16	Z16	X17	Y17	Z17	X18	Y18	Z18	X19	Y19	Z19	X20	Y20	Z20	X21	Y21	Z21	X22	Y22	Z22	X23	Y23	Z23	X24	Y24	Z24	X25	Y25	Z25	X26	Y26	Z26	X27	Y27	Z27	X28	Y28	Z28	X29	Y29	Z29	X30	Y30	Z30	X31	Y31	Z31	X32	Y32	Z32	X33	Y33	Z33	X34	Y34	Z34	X35	Y35	Z35	X36	Y36	Z36	X37	Y37	Z37	X38	Y38	Z38	X39	Y39	Z39	X40	Y40	Z40	X41	Y41	Z41	X42	Y42	Z42	X43	Y43	Z43	X44	Y44	Z44	X45	Y45	Z45	X46	Y46	Z46	X47	Y47	Z47	X48	Y48	Z48	X49	Y49	Z49	X50	Y50	Z50
																																																																																																																																																							
26	0.25	-1056.59399	1654.87122	-1508.35425	-1067.02576	1638.30493	-1377.80786	-1188.94031	1599.01257	-1521.8457	-1197.84119	1588.39026	-1393.75647	-1193.72778	1438.12573	-1465.13501	-1223.22754	1107.92957	-1453.04932	-1080.77283	1362.60217	-1461.12183	-1040.11584	1186.90466	-1470.44519	-1265.54065	1265.01563	-1390.45642	-1134.00671	1394.86414	-1624.29724	-1088.97681	1201.78015	-1703.80823	-1052.23792	1096.36523	-1722.96265	-934.76868	1005.1073	-1739.92493	-813.27942	977.5683	-1690.30994	-845.71112	926.39008	-1725.87122	-757.0025	909.58722	-1724.77478	-1130.14172	1391.98022	-1300.00793	-1202.55786	1200.29077	-1220.77112	-1214.95862	1078.05505	-1211.04504	-1224.67542	957.65338	-1193.74194	-1191.47388	808.14703	-1221.41907	-1247.01563	821.3111	-1185.13635	-1227.73999	738.89203	-1182.00281	-1052.61731	947.14215	-1572.51465	-1033.31323	957.78217	-1349.7583	-1207.87952	975.67584	-1526.80481	-1185.83667	978.10278	-1358.35217	-1170.77014	643.56897	-1623.81604	-1209.42944	482.2312	-1605.70459	-1362.17981	271.09836	-1603.98035	-1444.73743	116.71436	-1562.94373	-1488.13977	120.4171	-1520.4021	-1321.70264	38.79096	-1552.30042	-1022.77222	631.13562	-1287.37073	-984.75751	514.93341	-1319.39099	-964.47815	251.31781	-1321.04602	-924.28436	70.97846	-1365.2345	-952.42438	44.55817	-1415.8512	-769.75183	55.01208	-1354.28918	-1161.8374	1689.86975	-1455.92371	NaN	NaN	NaN	NaN	NaN	NaN	NaN	NaN	NaN	NaN	NaN	NaN	NaN	NaN	NaN	NaN	NaN	NaN	NaN	NaN	NaN	NaN	NaN	NaN	NaN	NaN	NaN	NaN	NaN	NaN
27	0.26	-1046.43323	1656.13281	-1507.52307	-1056.62427	1639.62048	-1376.92542	-1178.72388	1600.15771	-1520.68628	-1187.29919	1589.60547	-1392.64612	-1183.16736	1439.42688	-1463.93481	-1211.89172	1108.62109	-1452.43384	-1070.49585	1363.8186	-1459.84485	-1029.22241	1188.11975	-1469.12366	-1254.99365	1265.31482	-1389.10181	-1123.42542	1395.32056	-1623.39392	-1079.46057	1201.32422	-1702.2323	-1043.72021	1095.53882	-1721.28674	-926.88654	1003.54132	-1738.37634	-805.43774	975.3562	-1689.04785	-838.36487	924.28192	-1724.42261	-749.74042	907.09698	-1723.63354	-1119.71191	1392.88062	-1298.6687	-1190.73621	1200.3772	-1219.42065	-1202.19116	1077.979	-1209.49976	-1211.59119	957.67297	-1192.19397	-1178.04846	808.1507	-1219.88525	-1233.29065	821.58807	-1183.41272	-1213.92236	739.10358	-1180.22046	-1040.98218	947.60535	-1571.73145	-1021.15906	958.87122	-1349.40027	-1195.98108	976.18097	-1526.51208	-1174.3197	980.02069	-1357.95984	-1158.77686	643.75574	-1622.86047	-1196.92444	482.25177	-1604.92114	-1354.70251	275.14938	-1603.49438	-1440.55005	122.30246	-1563.64575	-1483.43726	127.49451	-1521.04443	-1320.82959	38.74686	-1552.21448	-1011.77252	633.55731	-1285.8584	-974.70624	516.95917	-1317.2135	-956.64606	253.06175	-1318.97021	-921.88074	71.3082	-1363.99536	-950.79535	45.33451	-1414.47998	-767.83606	52.19981	-1353.45349	-1151.60864	1691.10791	-1454.85242	NaN	NaN	NaN	NaN	NaN	NaN	NaN	NaN	NaN	NaN	NaN	NaN	NaN	NaN	NaN	NaN	NaN	NaN	NaN	NaN	NaN	NaN	NaN	NaN	NaN	NaN	NaN	NaN	NaN	NaN
28	0.27	-1036.10315	1657.50049	-1506.67151	-1046.04602	1641.07983	-1376.05957	-1168.50903	1601.73193	-1519.38354	-1176.72949	1591.2981	-1391.30554	-1172.64099	1441.0426	-1462.84827	-1200.68396	1109.77649	-1451.85901	-1060.06409	1365.35718	-1458.62708	-1018.14008	1189.875	-1467.80786	-1244.39392	1266.3938	-1387.6842	-1112.47375	1396.33362	-1622.33154	-1070.11841	1201.48694	-1700.49939	-1035.43433	1095.22925	-1719.47778	-919.56506	1001.96191	-1736.67114	-798.25842	972.68903	-1687.83325	-831.88336	921.83948	-1722.90259	-743.43079	903.97473	-1722.58362	-1109.41589	1394.30334	-1297.4635	-1178.63391	1201.00256	-1218.05298	-1189.02417	1078.60339	-1207.91223	-1197.94849	958.07666	-1190.61279	-1164.14648	808.75153	-1218.32678	-1219.29614	821.823	-1181.85388	-1199.4928	739.64075	-1178.31323	-1029.41833	948.63324	-1570.68396	-1009.05615	961.13586	-1348.62415	-1184.12158	976.98047	-1526.20557	-1162.84045	982.22833	-1357.87695	-1146.10999	644.08789	-1621.81519	-1182.91284	482.39185	-1604.4845	-1346.17566	279.97638	-1603.63232	-1435.43884	128.58484	-1564.07617	-1477.50549	135.3913	-1521.20813	-1320.05835	38.67987	-1552.04944	-1001.06873	635.99066	-1283.95911	-964.28839	519.2597	-1315.35742	-950.57025	254.19637	-1316.96887	-920.72766	71.49432	-1362.99011	-950.28717	45.81917	-1413.52014	-767.26758	49.46421	-1353.44214	-1141.02087	1692.68579	-1453.74744	NaN	NaN	NaN	NaN	NaN	NaN	NaN	NaN	NaN	NaN	NaN	NaN	NaN	NaN	NaN	NaN	NaN	NaN	NaN	NaN	NaN	NaN	NaN	NaN	NaN	NaN	NaN	NaN	NaN	NaN
29	0.28	-1025.77112	1658.85547	-1505.82959	-1035.1311	1642.71399	-1375.23438	-1158.37646	1603.47742	-1518.01794	-1166.12402	1593.24292	-1389.88733	-1162.20276	1442.64502	-1461.76233	-1189.51038	1111.23462	-1451.1709	-1049.64954	1367.03149	-1457.35681	-1006.99695	1191.69543	-1466.46655	-1233.93848	1268.03723	-1386.63391	-1101.30676	1397.77173	-1621.10803	-1060.79187	1202.12939	-1698.53101	-1027.30139	1095.33606	-1717.37378	-912.85132	1000.45032	-1734.87927	-791.8205	969.56189	-1686.67859	-826.27893	919.04053	-1721.41064	-738.00012	900.11066	-1721.54138	-1099.23743	1396.09912	-1296.37451	-1166.28137	1202.01721	-1216.74744	-1175.4801	1079.58972	-1206.49268	-1183.71484	959.06757	-1189.06848	-1149.49207	809.69299	-1216.70813	-1204.68054	822.90894	-1179.71338	-1184.71667	740.6546	-1176.21436	-1017.68677	950.08801	-1569.21521	-996.9425	964.19482	-1347.53979	-1172.37036	978.1933	-1525.86206	-1151.40662	984.58228	-1357.69299	-1132.7959	644.49878	-1620.88257	-1167.62622	482.51703	-1604.5	-1336.06543	284.66754	-1603.13159	-1429.09412	135.48991	-1564.31775	-1470.16479	144.02528	-1520.92981	-1319.26587	38.50821	-1551.70166	-990.44293	638.37537	-1282.44263	-954.11792	521.03802	-1313.95679	-945.64105	254.81488	-1315.15588	-919.86981	71.44322	-1362.31531	-950.02057	46.02332	-1412.64514	-766.50031	47.6392	-1353.44739	-1130.32922	1694.41565	-1452.53113	NaN	NaN	NaN	NaN	NaN	NaN	NaN	NaN	NaN	NaN	NaN	NaN	NaN	NaN	NaN	NaN	NaN	NaN	NaN	NaN	NaN	NaN	NaN	NaN	NaN	NaN	NaN	NaN	NaN	NaN
